# xmcd
#
# Track frame offsets:
#	150
#	21740
#	40422
#	64297
#	85120
#	108072
#	125780
#	144535
#	164140
#	190090
#
# Disc length: 2813 seconds
#
# Revision: 3
# Processed by: cddbd v1.5.2PL0 Copyright (c) Steve Scherf et al.
# Submitted via: EasyCDDAExtractor 16.0.6.1
#
DISCID=940afb0a
DTITLE=이소라 - 슬픔과 분노에 관한
DYEAR=1998
DGENRE=Ballad
TTITLE0=믿음
TTITLE1=우리다시
TTITLE2=내곁에서 떠나가지 말아요
TTITLE3=blue sky
TTITLE4=금지된
TTITLE5=curse
TTITLE6=피해의식
TTITLE7=너의 일
TTITLE8=나의 일
TTITLE9=praise
EXTD=YEAR: 1998
EXTT0=
EXTT1=
EXTT2=
EXTT3=
EXTT4=
EXTT5=
EXTT6=
EXTT7=
EXTT8=
EXTT9=
PLAYORDER=
